<?xml version="1.0"?>
<VTKFile type="UnstructuredGrid"  version="0.1"  >
<UnstructuredGrid>
<Piece  NumberOfPoints="200" NumberOfCells="534">
<Points>
<DataArray  type="Float64"  NumberOfComponents="3"  format="ascii">0 0 0  1 0 0  1 1 0  1 1 1  1 0 1  0 0 1  0 1 0  0 1 1  2 0 0  2 1 0  2 1 1  2 0 1  3 0 0  3 1 0  3 1 1  3 0 1  4 0 0  4 1 0  4 1 1  4 0 1  5 0 0  5 1 0  5 1 1  5 0 1  1 2 0  1 2 1  0 2 0  0 2 1  2 2 0  2 2 1  3 2 0  3 2 1  4 2 0  4 2 1  5 2 0  5 2 1  1 3 0  1 3 1  0 3 0  0 3 1  2 3 0  2 3 1  3 3 0  3 3 1  4 3 0  4 3 1  5 3 0  5 3 1  1 4 0  1 4 1  0 4 0  0 4 1  2 4 0  2 4 1  3 4 0  3 4 1  4 4 0  4 4 1  5 4 0  5 4 1  1 5 0  1 5 1  0 5 0  0 5 1  2 5 0  2 5 1  3 5 0  3 5 1  4 5 0  4 5 1  5 5 0  5 5 1  1 1 2  1 0 2  0 0 2  0 1 2  2 1 2  2 0 2  3 1 2  3 0 2  4 1 2  4 0 2  5 1 2  5 0 2  1 2 2  0 2 2  5 2 2  4 2 2  1 3 2  0 3 2  5 3 2  4 3 2  1 4 2  0 4 2  5 4 2  4 4 2  1 5 2  0 5 2  2 5 2  2 4 2  3 5 2  3 4 2  4 5 2  5 5 2  1 1 3  1 0 3  0 0 3  0 1 3  2 1 3  2 0 3  3 1 3  3 0 3  4 1 3  4 0 3  5 1 3  5 0 3  1 2 3  0 2 3  5 2 3  4 2 3  1 3 3  0 3 3  5 3 3  4 3 3  1 4 3  0 4 3  5 4 3  4 4 3  1 5 3  0 5 3  2 5 3  2 4 3  3 5 3  3 4 3  4 5 3  5 5 3  1 1 4  1 0 4  0 0 4  0 1 4  2 1 4  2 0 4  3 1 4  3 0 4  4 1 4  4 0 4  5 1 4  5 0 4  1 2 4  0 2 4  5 2 4  4 2 4  1 3 4  0 3 4  5 3 4  4 3 4  1 4 4  0 4 4  5 4 4  4 4 4  1 5 4  0 5 4  2 5 4  2 4 4  3 5 4  3 4 4  4 5 4  5 5 4  1 1 5  1 0 5  0 0 5  0 1 5  2 1 5  2 0 5  3 1 5  3 0 5  4 1 5  4 0 5  5 1 5  5 0 5  1 2 5  0 2 5  5 2 5  4 2 5  1 3 5  0 3 5  5 3 5  4 3 5  1 4 5  0 4 5  5 4 5  4 4 5  1 5 5  0 5 5  2 5 5  2 4 5  3 5 5  3 4 5  4 5 5  5 5 5  </DataArray>
</Points>
<Cells>
<DataArray  type="UInt32"  Name="connectivity"  format="ascii">0 1 2 3  0 1 3 4  0 3 4 5  0 2 3 6  0 3 5 7  0 3 6 7  1 8 9 10  1 8 10 11  1 4 10 11  1 2 9 10  1 3 4 10  1 2 3 10  8 12 13 14  8 12 14 15  8 11 14 15  8 9 13 14  8 10 11 14  8 9 10 14  12 16 17 18  12 16 18 19  12 15 18 19  12 13 17 18  12 14 15 18  12 13 14 18  16 20 21 22  16 20 22 23  16 19 22 23  16 17 21 22  16 18 19 22  16 17 18 22  2 6 24 25  2 3 6 25  3 6 7 25  6 24 25 26  6 7 25 27  6 25 26 27  2 9 28 29  2 9 10 29  2 3 10 29  2 24 28 29  2 3 25 29  2 24 25 29  9 13 30 31  9 13 14 31  9 10 14 31  9 28 30 31  9 10 29 31  9 28 29 31  13 17 32 33  13 17 18 33  13 14 18 33  13 30 32 33  13 14 31 33  13 30 31 33  17 21 34 35  17 21 22 35  17 18 22 35  17 32 34 35  17 18 33 35  17 32 33 35  24 26 36 37  24 25 26 37  25 26 27 37  26 36 37 38  26 27 37 39  26 37 38 39  24 28 40 41  24 28 29 41  24 25 29 41  24 36 40 41  24 25 37 41  24 36 37 41  28 30 42 43  28 30 31 43  28 29 31 43  28 40 42 43  28 29 41 43  28 40 41 43  30 32 44 45  30 32 33 45  30 31 33 45  30 42 44 45  30 31 43 45  30 42 43 45  32 34 46 47  32 34 35 47  32 33 35 47  32 44 46 47  32 33 45 47  32 44 45 47  36 38 48 49  36 37 38 49  37 38 39 49  38 48 49 50  38 39 49 51  38 49 50 51  36 40 52 53  36 40 41 53  36 37 41 53  36 48 52 53  36 37 49 53  36 48 49 53  40 42 54 55  40 42 43 55  40 41 43 55  40 52 54 55  40 41 53 55  40 52 53 55  42 44 56 57  42 44 45 57  42 43 45 57  42 54 56 57  42 43 55 57  42 54 55 57  44 46 58 59  44 46 47 59  44 45 47 59  44 56 58 59  44 45 57 59  44 56 57 59  48 50 60 61  48 49 50 61  49 50 51 61  50 60 61 62  50 51 61 63  50 61 62 63  48 52 64 65  48 52 53 65  48 49 53 65  48 60 64 65  48 49 61 65  48 60 61 65  52 54 66 67  52 54 55 67  52 53 55 67  52 64 66 67  52 53 65 67  52 64 65 67  54 56 68 69  54 56 57 69  54 55 57 69  54 66 68 69  54 55 67 69  54 66 67 69  56 58 70 71  56 58 59 71  56 57 59 71  56 68 70 71  56 57 69 71  56 68 69 71  3 4 5 72  4 5 72 73  5 72 73 74  3 5 7 72  5 72 74 75  5 7 72 75  4 10 11 76  4 11 76 77  4 73 76 77  3 4 10 76  4 72 73 76  3 4 72 76  11 14 15 78  11 15 78 79  11 77 78 79  10 11 14 78  11 76 77 78  10 11 76 78  15 18 19 80  15 19 80 81  15 79 80 81  14 15 18 80  15 78 79 80  14 15 78 80  19 22 23 82  19 23 82 83  19 81 82 83  18 19 22 82  19 80 81 82  18 19 80 82  3 7 25 84  3 7 72 84  7 72 75 84  7 25 27 84  7 75 84 85  7 27 84 85  18 22 35 86  18 22 82 86  18 80 82 86  18 33 35 86  18 80 86 87  18 33 86 87  25 27 37 88  25 27 84 88  27 84 85 88  27 37 39 88  27 85 88 89  27 39 88 89  33 35 47 90  33 35 86 90  33 86 87 90  33 45 47 90  33 87 90 91  33 45 90 91  37 39 49 92  37 39 88 92  39 88 89 92  39 49 51 92  39 89 92 93  39 51 92 93  45 47 59 94  45 47 90 94  45 90 91 94  45 57 59 94  45 91 94 95  45 57 94 95  49 51 61 96  49 51 92 96  51 92 93 96  51 61 63 96  51 93 96 97  51 63 96 97  49 53 65 98  49 53 98 99  49 92 98 99  49 61 65 98  49 92 96 98  49 61 96 98  53 55 67 100  53 55 100 101  53 99 100 101  53 65 67 100  53 98 99 100  53 65 98 100  55 57 69 102  55 57 95 102  55 95 101 102  55 67 69 102  55 100 101 102  55 67 100 102  57 59 71 103  57 59 94 103  57 94 95 103  57 69 71 103  57 95 102 103  57 69 102 103  72 73 74 104  73 74 104 105  74 104 105 106  72 74 75 104  74 104 106 107  74 75 104 107  73 76 77 108  73 77 108 109  73 105 108 109  72 73 76 108  73 104 105 108  72 73 104 108  77 78 79 110  77 79 110 111  77 109 110 111  76 77 78 110  77 108 109 110  76 77 108 110  79 80 81 112  79 81 112 113  79 111 112 113  78 79 80 112  79 110 111 112  78 79 110 112  81 82 83 114  81 83 114 115  81 113 114 115  80 81 82 114  81 112 113 114  80 81 112 114  72 75 84 116  72 75 104 116  75 104 107 116  75 84 85 116  75 107 116 117  75 85 116 117  80 82 86 118  80 82 114 118  80 112 114 118  80 86 87 118  80 112 118 119  80 87 118 119  84 85 88 120  84 85 116 120  85 116 117 120  85 88 89 120  85 117 120 121  85 89 120 121  86 87 90 122  86 87 118 122  87 118 119 122  87 90 91 122  87 119 122 123  87 91 122 123  88 89 92 124  88 89 120 124  89 120 121 124  89 92 93 124  89 121 124 125  89 93 124 125  90 91 94 126  90 91 122 126  91 122 123 126  91 94 95 126  91 123 126 127  91 95 126 127  92 93 96 128  92 93 124 128  93 124 125 128  93 96 97 128  93 125 128 129  93 97 128 129  92 98 99 130  92 99 130 131  92 124 130 131  92 96 98 130  92 124 128 130  92 96 128 130  99 100 101 132  99 101 132 133  99 131 132 133  98 99 100 132  99 130 131 132  98 99 130 132  95 101 102 134  95 101 127 134  101 127 133 134  100 101 102 134  101 132 133 134  100 101 132 134  94 95 103 135  94 95 126 135  95 126 127 135  95 102 103 135  95 127 134 135  95 102 134 135  104 105 106 136  105 106 136 137  106 136 137 138  104 106 107 136  106 136 138 139  106 107 136 139  105 108 109 140  105 109 140 141  105 137 140 141  104 105 108 140  105 136 137 140  104 105 136 140  109 110 111 142  109 111 142 143  109 141 142 143  108 109 110 142  109 140 141 142  108 109 140 142  111 112 113 144  111 113 144 145  111 143 144 145  110 111 112 144  111 142 143 144  110 111 142 144  113 114 115 146  113 115 146 147  113 145 146 147  112 113 114 146  113 144 145 146  112 113 144 146  104 107 116 148  104 107 136 148  107 136 139 148  107 116 117 148  107 139 148 149  107 117 148 149  112 114 118 150  112 114 146 150  112 144 146 150  112 118 119 150  112 144 150 151  112 119 150 151  116 117 120 152  116 117 148 152  117 148 149 152  117 120 121 152  117 149 152 153  117 121 152 153  118 119 122 154  118 119 150 154  119 150 151 154  119 122 123 154  119 151 154 155  119 123 154 155  120 121 124 156  120 121 152 156  121 152 153 156  121 124 125 156  121 153 156 157  121 125 156 157  122 123 126 158  122 123 154 158  123 154 155 158  123 126 127 158  123 155 158 159  123 127 158 159  124 125 128 160  124 125 156 160  125 156 157 160  125 128 129 160  125 157 160 161  125 129 160 161  124 130 131 162  124 131 162 163  124 156 162 163  124 128 130 162  124 156 160 162  124 128 160 162  131 132 133 164  131 133 164 165  131 163 164 165  130 131 132 164  131 162 163 164  130 131 162 164  127 133 134 166  127 133 159 166  133 159 165 166  132 133 134 166  133 164 165 166  132 133 164 166  126 127 135 167  126 127 158 167  127 158 159 167  127 134 135 167  127 159 166 167  127 134 166 167  136 137 138 168  137 138 168 169  138 168 169 170  136 138 139 168  138 168 170 171  138 139 168 171  137 140 141 172  137 141 172 173  137 169 172 173  136 137 140 172  137 168 169 172  136 137 168 172  141 142 143 174  141 143 174 175  141 173 174 175  140 141 142 174  141 172 173 174  140 141 172 174  143 144 145 176  143 145 176 177  143 175 176 177  142 143 144 176  143 174 175 176  142 143 174 176  145 146 147 178  145 147 178 179  145 177 178 179  144 145 146 178  145 176 177 178  144 145 176 178  136 139 148 180  136 139 168 180  139 168 171 180  139 148 149 180  139 171 180 181  139 149 180 181  144 146 150 182  144 146 178 182  144 176 178 182  144 150 151 182  144 176 182 183  144 151 182 183  148 149 152 184  148 149 180 184  149 180 181 184  149 152 153 184  149 181 184 185  149 153 184 185  150 151 154 186  150 151 182 186  151 182 183 186  151 154 155 186  151 183 186 187  151 155 186 187  152 153 156 188  152 153 184 188  153 184 185 188  153 156 157 188  153 185 188 189  153 157 188 189  154 155 158 190  154 155 186 190  155 186 187 190  155 158 159 190  155 187 190 191  155 159 190 191  156 157 160 192  156 157 188 192  157 188 189 192  157 160 161 192  157 189 192 193  157 161 192 193  156 162 163 194  156 163 194 195  156 188 194 195  156 160 162 194  156 188 192 194  156 160 192 194  163 164 165 196  163 165 196 197  163 195 196 197  162 163 164 196  163 194 195 196  162 163 194 196  159 165 166 198  159 165 191 198  165 191 197 198  164 165 166 198  165 196 197 198  164 165 196 198  158 159 167 199  158 159 190 199  159 190 191 199  159 166 167 199  159 191 198 199  159 166 198 199  </DataArray>
<DataArray  type="UInt32"  Name="offsets"  format="ascii">4 8 12 16 20 24 28 32 36 40 44 48 52 56 60 64 68 72 76 80 84 88 92 96 100 104 108 112 116 120 124 128 132 136 140 144 148 152 156 160 164 168 172 176 180 184 188 192 196 200 204 208 212 216 220 224 228 232 236 240 244 248 252 256 260 264 268 272 276 280 284 288 292 296 300 304 308 312 316 320 324 328 332 336 340 344 348 352 356 360 364 368 372 376 380 384 388 392 396 400 404 408 412 416 420 424 428 432 436 440 444 448 452 456 460 464 468 472 476 480 484 488 492 496 500 504 508 512 516 520 524 528 532 536 540 544 548 552 556 560 564 568 572 576 580 584 588 592 596 600 604 608 612 616 620 624 628 632 636 640 644 648 652 656 660 664 668 672 676 680 684 688 692 696 700 704 708 712 716 720 724 728 732 736 740 744 748 752 756 760 764 768 772 776 780 784 788 792 796 800 804 808 812 816 820 824 828 832 836 840 844 848 852 856 860 864 868 872 876 880 884 888 892 896 900 904 908 912 916 920 924 928 932 936 940 944 948 952 956 960 964 968 972 976 980 984 988 992 996 1000 1004 1008 1012 1016 1020 1024 1028 1032 1036 1040 1044 1048 1052 1056 1060 1064 1068 1072 1076 1080 1084 1088 1092 1096 1100 1104 1108 1112 1116 1120 1124 1128 1132 1136 1140 1144 1148 1152 1156 1160 1164 1168 1172 1176 1180 1184 1188 1192 1196 1200 1204 1208 1212 1216 1220 1224 1228 1232 1236 1240 1244 1248 1252 1256 1260 1264 1268 1272 1276 1280 1284 1288 1292 1296 1300 1304 1308 1312 1316 1320 1324 1328 1332 1336 1340 1344 1348 1352 1356 1360 1364 1368 1372 1376 1380 1384 1388 1392 1396 1400 1404 1408 1412 1416 1420 1424 1428 1432 1436 1440 1444 1448 1452 1456 1460 1464 1468 1472 1476 1480 1484 1488 1492 1496 1500 1504 1508 1512 1516 1520 1524 1528 1532 1536 1540 1544 1548 1552 1556 1560 1564 1568 1572 1576 1580 1584 1588 1592 1596 1600 1604 1608 1612 1616 1620 1624 1628 1632 1636 1640 1644 1648 1652 1656 1660 1664 1668 1672 1676 1680 1684 1688 1692 1696 1700 1704 1708 1712 1716 1720 1724 1728 1732 1736 1740 1744 1748 1752 1756 1760 1764 1768 1772 1776 1780 1784 1788 1792 1796 1800 1804 1808 1812 1816 1820 1824 1828 1832 1836 1840 1844 1848 1852 1856 1860 1864 1868 1872 1876 1880 1884 1888 1892 1896 1900 1904 1908 1912 1916 1920 1924 1928 1932 1936 1940 1944 1948 1952 1956 1960 1964 1968 1972 1976 1980 1984 1988 1992 1996 2000 2004 2008 2012 2016 2020 2024 2028 2032 2036 2040 2044 2048 2052 2056 2060 2064 2068 2072 2076 2080 2084 2088 2092 2096 2100 2104 2108 2112 2116 2120 2124 2128 2132 2136 </DataArray>
<DataArray  type="UInt8"  Name="types"  format="ascii">10 10 10 10 10 10 10 10 10 10 10 10 10 10 10 10 10 10 10 10 10 10 10 10 10 10 10 10 10 10 10 10 10 10 10 10 10 10 10 10 10 10 10 10 10 10 10 10 10 10 10 10 10 10 10 10 10 10 10 10 10 10 10 10 10 10 10 10 10 10 10 10 10 10 10 10 10 10 10 10 10 10 10 10 10 10 10 10 10 10 10 10 10 10 10 10 10 10 10 10 10 10 10 10 10 10 10 10 10 10 10 10 10 10 10 10 10 10 10 10 10 10 10 10 10 10 10 10 10 10 10 10 10 10 10 10 10 10 10 10 10 10 10 10 10 10 10 10 10 10 10 10 10 10 10 10 10 10 10 10 10 10 10 10 10 10 10 10 10 10 10 10 10 10 10 10 10 10 10 10 10 10 10 10 10 10 10 10 10 10 10 10 10 10 10 10 10 10 10 10 10 10 10 10 10 10 10 10 10 10 10 10 10 10 10 10 10 10 10 10 10 10 10 10 10 10 10 10 10 10 10 10 10 10 10 10 10 10 10 10 10 10 10 10 10 10 10 10 10 10 10 10 10 10 10 10 10 10 10 10 10 10 10 10 10 10 10 10 10 10 10 10 10 10 10 10 10 10 10 10 10 10 10 10 10 10 10 10 10 10 10 10 10 10 10 10 10 10 10 10 10 10 10 10 10 10 10 10 10 10 10 10 10 10 10 10 10 10 10 10 10 10 10 10 10 10 10 10 10 10 10 10 10 10 10 10 10 10 10 10 10 10 10 10 10 10 10 10 10 10 10 10 10 10 10 10 10 10 10 10 10 10 10 10 10 10 10 10 10 10 10 10 10 10 10 10 10 10 10 10 10 10 10 10 10 10 10 10 10 10 10 10 10 10 10 10 10 10 10 10 10 10 10 10 10 10 10 10 10 10 10 10 10 10 10 10 10 10 10 10 10 10 10 10 10 10 10 10 10 10 10 10 10 10 10 10 10 10 10 10 10 10 10 10 10 10 10 10 10 10 10 10 10 10 10 10 10 10 10 10 10 10 10 10 10 10 10 10 10 10 10 10 10 10 10 10 10 10 10 10 10 10 10 10 10 10 10 10 10 10 10 10 10 10 10 10 10 10 10 10 10 10 10 10 10 10 10 10 10 10 10 10 10 10 10 10 10 10 10 10 10 10 10 10 10 10 10 10 10 10 10 10 10 10 </DataArray>
</Cells>
<PointData  Tensors="f_1455"> 
<DataArray  type="Float64"  Name="f_1455"  NumberOfComponents="9" format="ascii">-4.1684018443320272e-05 -2.3127569201781073e-03 -2.3096908445566543e-03 -2.3127569201781073e-03 3.7485538763888503e-03 -1.3239426168569213e-03 -2.3096908445566543e-03 -1.3239426168569213e-03 3.7520167314300510e-03  6.8102794433794302e-03 -2.1999639378992328e-03 -2.2008873579734823e-03 -2.1999639378992328e-03 3.3925957990884036e-04 -1.1045509338930752e-03 -2.2008873579734823e-03 -1.1045509338930752e-03 3.4016029524825217e-04  6.5978904100214364e-03 -5.0167712845356015e-05 -3.1902949181883251e-03 -5.0167712845356015e-05 2.3354166095446377e-03 -9.4430727410746483e-04 -3.1902949181883246e-03 -9.4430727410746483e-04 -1.4253090780132587e-03  4.2480593606492190e-03 -1.6393248972982946e-03 -1.6355316507932710e-03 -1.6393248972982946e-03 1.6549268093087801e-03 -8.3737791137101461e-04 -1.6355316507932710e-03 -8.3737791137101461e-04 1.6608812729909891e-03  6.5796027410614287e-03 -3.1876867987936240e-03 -4.9772543573570524e-05 -3.1876867987936240e-03 -1.4078293979009667e-03 -9.4587448067725828e-04 -4.9772543573570524e-05 -9.4587448067725828e-04 2.3362708439023452e-03  -1.3953171978134161e-03 -2.7498798304521994e-03 -6.5345577570020106e-04 -2.7498798304521994e-03 2.2844411722618683e-03 -8.7610235762929252e-04 -6.5345577570020106e-04 -8.7610235762929252e-04 6.6185935725970200e-03  -1.4566614321025241e-03 -6.4659591103138881e-04 -2.7603172191008303e-03 -6.4659591103138881e-04 6.6650741936927736e-03 -8.7214345196578113e-04 -2.7603172191008303e-03 -8.7214345196578113e-04 2.2998328559931678e-03  -2.8260621707649576e-03 -8.5584703274626107e-04 -8.5761149175053817e-04 -8.5584703274626107e-04 5.1878033492044999e-03 -2.0352429822929292e-04 -8.5761149175053806e-04 -2.0352429822929292e-04 5.1917975710620004e-03  7.2801233914270968e-03 -3.7724761238637397e-04 -3.7747745798582394e-04 -3.7724761238637397e-04 1.0138299741836502e-04 -1.0056769614106434e-03 -3.7747745798582394e-04 -1.0056769614106434e-03 1.0134265680541132e-04  6.3981052389974515e-03 -2.7494901368205812e-04 -3.0416716487357691e-04 -2.7494901368205812e-04 1.2690339770370564e-03 -6.4103072408789100e-04 -3.0416716487357707e-04 -6.4103072408789100e-04 -1.7999247637050659e-04  1.0002091067853451e-02 -8.6352619625193743e-04 -8.6336010410190979e-04 -8.6352619625193743e-04 -1.2429717075907311e-03 -8.3813442642051005e-04 -8.6336010410190979e-04 -8.3813442642051005e-04 -1.2392330586329489e-03  6.3935263158463916e-03 -3.0667993891368451e-04 -2.7379748019535597e-04 -3.0667993891368451e-04 -1.7421665866664785e-04 -6.4185569743907208e-04 -2.7379748019535597e-04 -6.4185569743907208e-04 1.2678372182200752e-03  6.7273341410528566e-03 1.2876167291271342e-03 1.2878240462270288e-03 1.2876167291271342e-03 3.7850623529590654e-04 -8.7842853269000192e-04 1.2878240462270288e-03 -8.7842853269000192e-04 3.7815385730075957e-04  7.1660484332284058e-03 -1.1730728222929637e-05 1.2736555243637205e-03 -1.1730728222929637e-05 1.0510591838140673e-03 -5.7939479847074536e-04 1.2736555243637205e-03 -5.7939479847074536e-04 -7.2225829660253836e-04  9.6112332176554131e-03 2.5222050397487956e-04 2.5168968948105112e-04 2.5222050397487956e-04 -1.0491708159440917e-03 -6.8362803165765841e-04 2.5168968948105123e-04 -6.8362803165765841e-04 -1.0478189681252218e-03  7.1677913279298167e-03 1.2725876293451152e-03 -1.1584194681432811e-05 1.2725876293451152e-03 -7.2315060095287393e-04 -5.7930481314197909e-04 -1.1584194681432812e-05 -5.7930481314197909e-04 1.0502010469848845e-03  4.8782627571554871e-03 2.8364286876787249e-03 2.8365635842107417e-03 2.8364286876787249e-03 1.3226594662971041e-03 2.7075996519499210e-06 2.8365635842107417e-03 2.7075996519499210e-06 1.3226217462603560e-03  6.0250610507976447e-03 3.5294611589672091e-04 3.5163753828949748e-03 3.5294611589672091e-04 9.4478860382950225e-04 -2.6043661702565275e-04 3.5163753828949748e-03 -2.6043661702565275e-04 5.4327933908628913e-04  8.9975790054508398e-03 8.4014353225744722e-04 8.3996980844980708e-04 8.4014353225744722e-04 -7.4523161140657105e-04 -4.4026040827476332e-04 8.3996980844980708e-04 -4.4026040827476332e-04 -7.4515261673142571e-04  6.0250325641321685e-03 3.5167259116933589e-03 3.5299923679787731e-04 3.5167259116933589e-03 5.4291746667131495e-04 -2.6036346804318646e-04 3.5299923679787731e-04 -2.6036346804318646e-04 9.4518122761278020e-04  -3.1945393464945840e-03 1.7739013536821940e-03 1.7738806280022225e-03 1.7739013536821940e-03 5.3817943955092439e-03 1.3792895265665253e-03 1.7738806280022225e-03 1.3792895265665253e-03 5.3818926876162141e-03  -7.6537713885870386e-04 -8.0179180542131476e-04 4.4712803091307108e-03 -8.0179180542131476e-04 2.0542805496564470e-03 9.1128356061374145e-04 4.4712803091307108e-03 9.1128356061374145e-04 6.2530387522678390e-03  6.2572911895637006e-03 1.5135054655281656e-03 1.5135379292160734e-03 1.5135054655281656e-03 6.3716466758711651e-04 2.2312715589913057e-04 1.5135379292160734e-03 2.2312715589913057e-04 6.3708062359224256e-04  -7.6522634651939308e-04 4.4713267678364432e-03 -8.0182323027468475e-04 4.4713267678364432e-03 6.2529160494644159e-03 9.1126398970832456e-04 -8.0182323027468475e-04 9.1126398970832456e-04 2.0542502787867130e-03  6.0192516342046313e-03 -2.8216461071741908e-04 -2.4276354315704248e-03 -2.8216461071741908e-04 2.1531747910183158e-03 -8.6505814592117121e-05 -2.4276354315704248e-03 -8.6505814592117121e-05 -6.6943633398427376e-04  1.9582386241902856e-03 -1.0687037185032741e-04 -1.9843594537471390e-03 -1.0687037185032741e-04 5.0376702839123140e-03 -2.3213856004696177e-04 -1.9843594537471395e-03 -2.3213856004696177e-04 5.6500414510307303e-04  -1.0528032003269019e-03 -1.6454286607675054e-05 -2.4485539091888622e-03 -1.6454286607675054e-05 6.5334775299519523e-03 -3.1294839214669019e-05 -2.4485539091888622e-03 -3.1294839214669019e-05 2.0333680818431870e-03  -9.5526995745264019e-04 -1.1926055658843335e-04 -6.4861519999259601e-04 -1.1926055658843340e-04 4.4544788518839432e-03 -1.8157075639129775e-04 -6.4861519999259601e-04 -1.8157075639129775e-04 4.0386542806179690e-03  5.9245905131599759e-03 -1.4107179669903958e-04 -1.5974489985615193e-04 -1.4107179669903958e-04 1.0164296113785581e-03 -1.6668882723350130e-04 -1.5974489985615193e-04 -1.6668882723350130e-04 5.4708103552238293e-04  9.8279002877341218e-03 1.5458321376027602e-04 -1.4957339763651952e-03 1.5458321376027602e-04 1.4659377123713386e-03 -3.2996412679455183e-04 -1.4957339763651952e-03 -3.2996412679455183e-04 -3.7804635407874638e-03  7.1072269267487163e-03 1.3115709488439138e-04 8.9139685145870815e-04 1.3115709488439138e-04 8.1205000261486300e-04 -1.6950593835812083e-04 8.9139685145870815e-04 -1.6950593835812083e-04 -4.2437274374871649e-04  8.6624416052063433e-03 1.0251010111247810e-04 2.5577331676543186e-04 1.0251010111247810e-04 1.1876674327817023e-03 -2.1857137426778723e-04 2.5577331676543186e-04 -2.1857137426778723e-04 -2.3403672962713680e-03  5.6988670457190005e-03 3.4109318952341248e-04 2.8341232611240855e-03 3.4109318952341248e-04 1.2944992595809994e-03 -2.1308461190016047e-05 2.8341232611240855e-03 -2.1308461190016047e-05 5.1689079403339393e-04  8.1219578840416862e-03 2.4796134584069950e-05 7.8206866611677439e-04 2.4796134584069950e-05 7.4336772364325490e-04 -8.1139270827091910e-05 7.8206866611677439e-04 -8.1139270827091910e-05 -1.3615331386353400e-03  -2.7939820253588632e-04 9.1324679359701776e-05 3.5585914694940784e-03 9.1324679359701776e-05 2.2137807923199716e-03 2.3984197454049577e-04 3.5585914694940784e-03 2.3984197454049577e-04 5.5966957890181369e-03  6.6066490066752012e-03 -3.7348798978106428e-04 1.6825556223066601e-03 -3.7348798978106428e-04 7.5983940822465829e-04 5.6228294827963568e-05 1.6825556223066603e-03 5.6228294827963568e-05 1.4863323689795669e-04  5.9179258506798331e-03 -1.2321488444846372e-05 -2.6523259504130873e-03 -1.2321488444846374e-05 2.6333668271552859e-03 4.9623376632679109e-04 -2.6523259504130873e-03 4.9623376632679109e-04 -1.0435335877154027e-03  1.8623959902235566e-03 2.7149284641483972e-04 -1.9238174292249015e-03 2.7149284641483972e-04 4.9612259323167408e-03 1.8129366695657050e-04 -1.9238174292249015e-03 1.8129366695657050e-04 7.3410361497881023e-04  -1.2025950214199753e-03 9.1611567915771098e-04 -2.5596653154445676e-03 9.1611567915771098e-04 6.3348701698056854e-03 7.8691203462235865e-04 -2.5596653154445676e-03 7.8691203462235865e-04 2.3789565699970411e-03  -2.1700547564989115e-03 8.5168621269121603e-04 -7.1987076386190348e-04 8.5168621269121603e-04 5.0935226672609362e-03 5.8265378560856089e-05 -7.1987076386190326e-04 5.8265378560856089e-05 4.6238850553682667e-03  6.0905411517042669e-03 5.6231181220304351e-05 -2.8102376793406821e-04 5.6231181220304351e-05 1.4360837578970718e-03 8.7620317455088900e-05 -2.8102376793406821e-04 8.7620317455088900e-05 -3.5189411924609424e-05  9.9074239753149090e-03 4.3682809581527108e-05 -1.3997394454741603e-03 4.3682809581527108e-05 7.9300934432581494e-04 2.0879831395105049e-04 -1.3997394454741603e-03 2.0879831395105049e-04 -3.1921910122924731e-03  7.1157051487081326e-03 1.1179198799965915e-04 8.9153642788685850e-04 1.1179198799965915e-04 1.1005605752378116e-03 4.8971531568174578e-05 8.9153642788685850e-04 4.8971531568174578e-05 -7.1985820923839872e-04  8.4581604724220400e-03 -3.8399028130729509e-06 2.5241088399941583e-04 -3.8399028130729509e-06 6.5393878535704552e-04 1.7307677439338035e-04 2.5241088399941583e-04 1.7307677439338035e-04 -1.6045331574941763e-03  5.7201194709228156e-03 1.6615170917991509e-04 2.8253710488103426e-03 1.6615170917991509e-04 1.5004600332223115e-03 1.4558741747779810e-04 2.8253710488103431e-03 1.4558741747779810e-04 2.8958811228156379e-04  8.1505289434954994e-03 -2.3354932249365625e-05 6.4709271304087520e-04 -2.3354932249365625e-05 4.4027220253676813e-04 6.6837380240304653e-05 6.4709271304087520e-04 6.6837380240304667e-05 -1.0889998981890873e-03  -2.4052777386757963e-05 -1.9517272866172687e-05 3.9516053643164880e-03 -1.9517272866172687e-05 2.1658976176621380e-03 3.3961591991182372e-04 3.9516053643164880e-03 3.3961591991182372e-04 5.3890495340278861e-03  6.5900332283941399e-03 -4.9674595423963355e-05 1.5159008297215529e-03 -4.9674595423963355e-05 4.6536560439917066e-04 1.0138179509600058e-04 1.5159008297215529e-03 1.0138179509600058e-04 4.5842623613972909e-04  5.7029941995712678e-03 2.2907800118068458e-04 -2.5721054063677280e-03 2.2907800118068458e-04 2.6388909569115891e-03 1.3240761305298625e-03 -2.5721054063677280e-03 1.3240761305298625e-03 -8.2823428193334295e-04  3.6890499011046152e-03 5.2615547757722629e-04 -1.3224873077080554e-03 5.2615547757722629e-04 3.3609999940071673e-03 3.9320125569309027e-04 -1.3224873077080557e-03 3.9320125569309027e-04 4.9044363461018137e-04  -6.1021018670602046e-04 1.9943815110177550e-03 -1.9831913795620936e-03 1.9943815110177550e-03 5.4461577937001161e-03 1.5200419084552285e-03 -1.9831913795620936e-03 1.5200419084552285e-03 2.6666240098437879e-03  -2.3084454783068222e-03 2.1361025152726088e-03 -7.0310256151685129e-04 2.1361025152726088e-03 4.7929899260881143e-03 2.4871613185898132e-04 -7.0310256151685118e-04 2.4871613185898132e-04 5.0623432642751317e-03  6.4458386044805400e-03 1.7036678324826939e-04 -2.7203818437361197e-04 1.7036678324826939e-04 1.1787888447403838e-03 3.9508541497099760e-04 -2.7203818437361203e-04 3.9508541497099760e-04 -1.3266592851004754e-04  8.6321860745090882e-03 3.8246878224265391e-05 -7.2291868177709574e-04 3.8246878224265391e-05 4.0299641465556252e-04 2.6357844628020430e-04 -7.2291868177709574e-04 2.6357844628020430e-04 -1.5308277975345252e-03  7.2898109152234299e-03 1.1103625887469101e-04 8.4625258843710170e-04 1.1103625887469101e-04 7.8694244543547746e-04 2.9000640611853408e-04 8.4625258843710170e-04 2.9000640611853408e-04 -5.7961634658085053e-04  8.0479686985477656e-03 -2.5954482593589679e-05 8.5702515981667454e-05 -2.5954482593589686e-05 2.4871873810627319e-04 1.6349329446049029e-04 8.5702515981667454e-05 1.6349329446049029e-04 -7.9240149460369413e-04  6.0149358737202540e-03 2.8251696887340768e-04 2.5857092245044812e-03 2.8251696887340768e-04 1.2396019980374295e-03 4.1114270036459084e-04 2.5857092245044808e-03 4.1114270036459084e-04 2.5303212637172611e-04  8.0734598899495497e-03 -2.2207742541603982e-05 5.1407693597333500e-04 -2.2207742541603982e-05 3.4305888858203682e-04 8.0669368607629930e-05 5.1407693597333500e-04 8.0669368607629930e-05 -9.1478138586393958e-04  2.4236411391688001e-04 3.9915818989899485e-04 3.8235643597419660e-03 3.9915818989899485e-04 2.2780434091362713e-03 9.2815127230849075e-04 3.8235643597419660e-03 9.2815127230849075e-04 5.0046817227291530e-03  6.5827128589027424e-03 -6.2949706149622862e-05 1.5145621886962976e-03 -6.2949706149622862e-05 5.2484284312540464e-04 8.3756768106661936e-05 1.5145621886962976e-03 8.3756768106661936e-05 4.0546635873257115e-04  6.0589773263158139e-03 -2.4987681627020779e-04 -8.3669495876192079e-04 -2.4987681627020779e-04 -2.8145986219309222e-04 1.7578065539287922e-03 -8.3669495876192090e-04 1.7578065539287922e-03 1.7162528943404896e-03  3.7748462415827730e-03 8.7281509813138527e-04 -8.4629466680739265e-04 8.7281509813138527e-04 2.6815343501603041e-03 7.1856225478044930e-04 -8.4629466680739265e-04 7.1856225478044930e-04 1.0706221056846110e-03  3.9060888659121955e-03 1.8288523506073758e-03 -1.2059832437687921e-04 1.8288523506073758e-03 -8.8425243933468406e-04 1.3004710088949309e-03 -1.2059832437687920e-04 1.3004710088949309e-03 4.4304934750184627e-03  2.9735098566179090e-03 2.5530503621637498e-03 1.6140770661630095e-04 2.5530503621637498e-03 -1.5083065816923617e-04 -5.8694325094418688e-05 1.6140770661630087e-04 -5.8694325094418688e-05 4.6604147075659658e-03  6.8695660132385462e-03 4.2441940840309786e-06 1.1664096964209868e-04 4.2441940840309786e-06 -3.6980949730385182e-04 1.3012041011500414e-04 1.1664096964209869e-04 1.3012041011500414e-04 9.8829313189746333e-04  9.4012929200589651e-03 -3.1002131678092875e-04 -5.1648169158464616e-04 -3.1002131678092875e-04 -1.7329915051493181e-04 4.8122073709778356e-04 -5.1648169158464616e-04 4.8122073709778356e-04 -1.7247885757071708e-03  7.8829949202806043e-03 -1.6368834114378170e-04 5.2512508612968833e-04 -1.6368834114378170e-04 -3.6381286538383304e-04 2.1275558966875720e-04 5.2512508612968833e-04 2.1275558966875720e-04 -1.7816070361877485e-05  7.9624458828331402e-03 -6.6955761846139843e-05 2.5056135831775638e-04 -6.6955761846139843e-05 1.1314530597921250e-04 2.1876818116145733e-04 2.5056135831775638e-04 2.1876818116145733e-04 -5.7043093733199482e-04  6.6331012398992660e-03 3.0328366382597114e-04 2.0730292908396940e-03 3.0328366382597114e-04 2.0476148485573659e-04 3.8431995834647346e-04 2.0730292908396940e-03 3.8431995834647346e-04 6.6283114568773554e-04  7.8845389128296365e-03 5.1579754021993805e-05 5.2023561455148280e-04 5.1579754021993805e-05 2.0036372510793225e-04 1.8244056975891249e-04 5.2023561455148280e-04 1.8244056975891249e-04 -5.8349774267162655e-04  2.1442986077707432e-03 1.0708283570132963e-03 3.2089022028098792e-03 1.0708283570132963e-03 1.6696419782622793e-03 1.4198930722671970e-03 3.2089022028098792e-03 1.4198930722671970e-03 3.6942096166109142e-03  6.8052679273412891e-03 1.5294613959659849e-04 1.4552809352259477e-03 1.5294613959659849e-04 4.7408391886401551e-04 3.3799884335185867e-04 1.4552809352259481e-03 3.3799884335185867e-04 2.3131029931782105e-04  1.9716458890387282e-03 -1.9813508042402480e-03 -1.0595981593666253e-04 -1.9813508042402480e-03 5.6164756158718222e-04 -2.3164296517093772e-04 -1.0595981593666253e-04 -2.3164296517093772e-04 5.0274997132942513e-03  6.0323340410695335e-03 -2.4615456270451713e-03 -2.7595550265123550e-04 -2.4615456270451713e-03 -7.2960202967113467e-04 -7.0698786579713750e-05 -2.7595550265123550e-04 -7.0698786579713750e-05 2.2007468694599532e-03  -1.2142748592439501e-03 -2.5039010393721273e-03 6.5009693097183937e-06 -2.5039010393721273e-03 2.0604595406556328e-03 -1.5746966037554555e-05 6.5009693097183937e-06 -1.5746966037554555e-05 6.6694738753546989e-03  -1.2990943376941387e-03 -6.5103703748187311e-04 -8.9622179257397219e-05 -6.5103703748187311e-04 4.2098281773864611e-03 -1.7930375579995137e-04 -8.9622179257397259e-05 -1.7930375579995137e-04 4.6292934930841920e-03  9.8402507506198892e-03 -1.4917997661685061e-03 1.5225992154159623e-04 -1.4917997661685061e-03 -3.7826007257996206e-03 -3.3010407632956903e-04 1.5225992154159623e-04 -3.3010407632956903e-04 1.4556110475940790e-03  5.9781894615753570e-03 -1.5743794420493181e-04 -1.4314044819063103e-04 -1.5743794420493181e-04 4.8587481438541410e-04 -1.5652785617150126e-04 -1.4314044819063100e-04 -1.5652785617150129e-04 1.0240707376955465e-03  8.6528812650241375e-03 2.5741506535727720e-04 1.0312592873310404e-04 2.5741506535727720e-04 -2.3318128140436636e-03 -2.1913219584957311e-04 1.0312592873310403e-04 -2.1913219584957308e-04 1.1886960722100857e-03  7.1113719879454399e-03 8.9968087130082612e-04 1.3109695961351013e-04 8.9968087130082612e-04 -4.3460332815682917e-04 -1.6744784793929811e-04 1.3109695961351013e-04 -1.6744784793929811e-04 8.1818228793012016e-04  8.1217902890369613e-03 7.8129257262168916e-04 2.4828598079186989e-05 7.8129257262168916e-04 -1.3607145824853554e-03 -8.1235169881989163e-05 2.4828598079186989e-05 -8.1235169881989163e-05 7.4271080003155917e-04  5.6983577057252398e-03 2.8341434947975761e-03 3.4122491162187548e-04 2.8341434947975761e-03 5.1787822063160656e-04 -2.1525234327463556e-05 3.4122491162187548e-04 -2.1525234327463552e-05 1.2940129493861617e-03  6.6062717589986065e-03 1.6822519547020733e-03 -3.7346038200138386e-04 1.6822519547020733e-03 1.4896545229281383e-04 5.6321047070417956e-05 -3.7346038200138386e-04 5.6321047070417956e-05 7.5988760735482019e-04  -2.7980125074045042e-04 3.5579171654340465e-03 9.1392577170397815e-05 3.5579171654340465e-03 5.5974135474404991e-03 2.3996630520963311e-04 9.1392577170397801e-05 2.3996630520963305e-04 2.2134685721488072e-03  -3.1042727692736981e-03 -1.1077113770543182e-05 -1.3362498977955536e-05 -1.1077113770543168e-05 5.3425704337074428e-03 8.2404230308949679e-05 -1.3362498977955468e-05 8.2404230308949679e-05 5.3337481295128121e-03  8.1132089410606179e-04 -1.8902297509305801e-04 -1.7746871087229087e-04 -1.8902297509305801e-04 3.3651212126397253e-03 -7.3525135116070132e-05 -1.7746871087229090e-04 -7.3525135116070132e-05 3.3484261555404883e-03  7.2957830184581093e-03 -5.9634690414758361e-04 -5.9628273154853405e-04 -5.9634690414758361e-04 9.8966520059357016e-05 1.0112722350467893e-04 -5.9628273154853405e-04 1.0112722350467893e-04 9.9049701560094909e-05  7.2731803260419198e-03 2.9695923351599508e-05 2.9832742613360472e-05 2.9695923351599512e-05 1.1512707974191946e-04 4.1962539387810589e-05 2.9832742613360452e-05 4.1962539387810589e-05 1.1481587163274846e-04  -2.6481560423440190e-03 3.4788483773572001e-04 9.6486564012749073e-05 3.4788483773572001e-04 4.7771916451084615e-03 4.3845541536265921e-05 9.6486564012749046e-05 4.3845541536265921e-05 5.4337825363178710e-03  -8.8175490506896682e-04 6.1034660144809088e-04 -1.8459205896652613e-04 6.1034660144809088e-04 4.1830008186653951e-03 7.9736059906127636e-05 -1.8459205896652613e-04 7.9736059906127636e-05 4.2357070215414648e-03  7.5063278024027954e-03 1.0190155183757292e-04 -5.3088204467553811e-04 1.0190155183757292e-04 -3.8406983407587701e-04 -2.3235311505374037e-05 -5.3088204467553811e-04 -2.3235311505374040e-05 3.7692608027018582e-04  7.3908833598042480e-03 -4.3488032598935610e-05 2.6830070832381680e-05 -4.3488032598935610e-05 -6.0950279956601022e-06 7.4359818443831302e-06 2.6830070832381680e-05 7.4359818443831293e-06 1.1720663298448160e-04  1.9738790004696577e-03 4.4378227787556142e-04 2.4460090186194582e-05 4.4378227787556142e-04 2.6343492751802469e-03 2.9244445229810857e-05 2.4460090186194572e-05 2.9244445229810857e-05 2.9276849347185971e-03  -1.6699296577758458e-03 1.5702446712066265e-03 -8.2823600973354160e-05 1.5702446712066265e-03 3.9867424879719560e-03 1.8731172023406855e-04 -8.2823600973354160e-05 1.8731172023406855e-04 5.2206718021254985e-03  7.4739035544341189e-03 1.6732202309620047e-05 -4.6449738054772313e-04 1.6732202309620047e-05 -2.0622033110585211e-04 -3.9252001682112413e-05 -4.6449738054772308e-04 -3.9252001682112419e-05 2.3173359332878584e-04  7.3724086604326214e-03 1.1990800642092786e-05 4.0007155816399014e-05 1.1990800642092787e-05 -5.7659187239478514e-06 1.0128728769539278e-06 4.0007155816399007e-05 1.0128728769539291e-06 1.3560398661392333e-04  2.4301425077238987e-03 9.6530613367782606e-04 2.2924682471055441e-04 9.6530613367782606e-04 1.7421216875002526e-03 -2.0679530363097910e-04 2.2924682471055444e-04 -2.0679530363097910e-04 3.3575553108661149e-03  2.5835758665774767e-03 1.8404010834254434e-03 3.1080202558344501e-05 1.8404010834254434e-03 -1.9630340053473086e-04 8.4430971383638663e-05 3.1080202558344488e-05 8.4430971383638663e-05 5.1053758823967040e-03  9.6841089751421132e-03 -3.4566020930305690e-04 5.4420812792938423e-04 -3.4566020930305690e-04 -1.6335542322472030e-03 -2.3361464879850561e-04 5.4420812792938423e-04 -2.3361464879850561e-04 -5.6904426085046980e-04  7.5903686344109102e-03 8.2973172741694853e-06 7.4489795824580820e-05 8.2973172741694853e-06 -1.2732521042873335e-04 -2.6488953194262403e-06 7.4489795824580820e-05 -2.6488953194262408e-06 3.7361074822141284e-05  6.6692825417017342e-03 7.0436673412592780e-05 1.1629937863563712e-04 7.0436673412592780e-05 8.1833087947188554e-05 -1.2587676575196786e-04 1.1629937863563712e-04 -1.2587676575196786e-04 7.5140474388838687e-04  7.6248302326559977e-03 -2.7468468100685586e-05 5.1414448737421068e-05 -2.7468468100685586e-05 -9.3984168259470647e-05 -7.5820775418753412e-06 5.1414448737421068e-05 -7.5820775418753412e-06 -3.0333296223264216e-05  7.2771597453314615e-03 5.4307905243992859e-06 -1.6897885296704326e-04 5.4307905243992859e-06 -1.2423836643534950e-04 -7.1609297401780284e-05 -1.6897885296704326e-04 -7.1609297401780284e-05 3.4792869416625449e-04  7.5137535839897686e-03 -1.5949485498753775e-05 -5.3639297906783083e-04 -1.5949485498753775e-05 -2.2296754228163989e-04 -8.8004958861911915e-05 -5.3639297906783083e-04 -8.8004958861911915e-05 2.0861180945948529e-04  2.1651938511194888e-03 -1.8581057617951049e-03 2.3231759320223997e-04 -1.8581057617951049e-03 6.5512874852465821e-04 1.5565113023085171e-04 2.3231759320223997e-04 1.5565113023085171e-04 4.7346256902237793e-03  5.9126308183577508e-03 -2.5026575628191768e-03 -3.4634239718770639e-05 -2.5026575628191768e-03 -8.8050034551446436e-04 4.5667205260562199e-04 -3.4634239718770639e-05 4.5667205260562199e-04 2.4740395000414001e-03  -1.0228685201503272e-03 -2.4717435607099188e-03 8.8958071101823632e-04 -2.4717435607099188e-03 2.3880711357966195e-03 7.6343384973545419e-04 8.8958071101823632e-04 7.6343384973545419e-04 6.1438999599347389e-03  -1.5025689520655411e-03 -6.6560653308680941e-04 7.9348156955527248e-04 -6.6560653308680941e-04 4.3286222730985931e-03 3.8433865461986266e-05 7.9348156955527248e-04 3.8433865461986266e-05 4.7163012178216409e-03  9.7284653714642573e-03 -1.3754801068948297e-03 5.5325302431527165e-05 -1.3754801068948297e-03 -3.0287469135273034e-03 1.8628555277529015e-04 5.5325302431527165e-05 1.8628555277529015e-04 8.0882320983574727e-04  5.9368538380310020e-03 -2.4695293808017494e-04 5.7081020900655729e-05 -2.4695293808017494e-04 1.7948913282417726e-04 4.8901349673714366e-05 5.7081020900655729e-05 4.8901349673714366e-05 1.3746020860646200e-03  8.4502202777530285e-03 2.2489661684299309e-04 -3.5759875492283044e-06 2.2489661684299312e-04 -1.5774238683234167e-03 1.6500703154542285e-04 -3.5759875492283018e-06 1.6500703154542285e-04 6.3455592052651154e-04  7.0653661378288152e-03 8.7164875562637564e-04 1.1440800563517652e-04 8.7164875562637553e-04 -6.4342592085819979e-04 3.5734158237976664e-05 1.1440800563517651e-04 3.5734158237976664e-05 1.0742693173076763e-03  8.1485660379030812e-03 6.4305469450849227e-04 -2.3399071107450109e-05 6.4305469450849227e-04 -1.0864389003305485e-03 6.7196137855604670e-05 -2.3399071107450105e-05 6.7196137855604670e-05 4.3969699628552283e-04  5.7171011987967955e-03 2.8197026548393489e-03 1.6634030941088974e-04 2.8197026548393489e-03 2.9522716653619983e-04 1.4538723147239610e-04 1.6634030941088974e-04 1.4538723147239612e-04 1.4978432052196332e-03  6.5924184545267670e-03 1.5185044635980356e-03 -4.9809154173194058e-05 1.5185044635980356e-03 4.5456256250301855e-04 1.0141568813475448e-04 -4.9809154173194058e-05 1.0141568813475446e-04 4.6683860161060060e-04  -2.3310926567423128e-05 3.9515824080831683e-03 -1.9732666569397650e-05 3.9515824080831683e-03 5.3875239601183563e-03 3.3944520864486718e-04 -1.9732666569397630e-05 3.3944520864486718e-04 2.1666838915935416e-03  -2.1129925084669055e-03 6.8638149369666012e-05 3.0106881952799146e-04 6.8638149369666012e-05 5.1245497832311908e-03 5.1078922964810185e-05 3.0106881952799146e-04 5.1078922964810185e-05 4.5482346721556852e-03  2.5279949086792823e-04 -2.1311787963459677e-04 5.2500535093079239e-04 -2.1311787963459677e-04 3.6573321331240514e-03 7.9168755249228945e-05 5.2500535093079250e-04 7.9168755249228945e-05 3.6199557862841517e-03  7.5092105382178771e-03 -5.2929668491219321e-04 1.0171464856504741e-04 -5.2929668491219321e-04 3.7433432113047885e-04 -2.2973593074451303e-05 1.0171464856504742e-04 -2.2973593074451310e-05 -3.8436492526552142e-04  7.3889358787552718e-03 2.5844054068101157e-05 -4.3212711870915276e-05 2.5844054068101157e-05 1.1802814851881738e-04 6.7493808041964875e-06 -4.3212711870915276e-05 6.7493808041964875e-06 -4.9803309550156855e-06  -1.4371751328141394e-03 2.9466535603162904e-04 2.8158669996030425e-04 2.9466535603162904e-04 4.4954035849316207e-03 -1.4955532005128041e-06 2.8158669996030430e-04 -1.4955532005128041e-06 4.4924954362646086e-03  -1.4467926661834382e-03 5.8394968810399398e-04 5.6683497349882268e-04 5.8394968810399398e-04 4.4966471217477268e-03 9.5927686580530363e-05 5.6683497349882268e-04 9.5927686580530363e-05 4.4913677016277468e-03  7.5994588462691866e-03 9.8908355234598812e-05 9.8760901492740981e-05 9.8908355234598812e-05 -4.8359616979377394e-05 -1.6522005854100938e-05 9.8760901492740994e-05 -1.6522005854100938e-05 -4.8645128695971407e-05  7.5207163990522628e-03 -3.2055792600823208e-05 -3.2834372157902176e-05 -3.2055792600823208e-05 -1.0522421367194692e-05 -2.4042910802974410e-06 -3.2834372157902176e-05 -2.4042910802974410e-06 -9.0798166017876689e-06  2.5296591365636524e-03 3.6233844616067701e-04 1.3983333164578290e-04 3.6233844616067695e-04 2.5088635103182925e-03 -1.5658642315749527e-05 1.3983333164578287e-04 -1.5658642315749527e-05 2.4916905395410307e-03  -2.0557808059084434e-03 1.5457055871521974e-03 5.8619109275281672e-04 1.5457055871521974e-03 4.1747761581011639e-03 1.2513107535308497e-04 5.8619109275281683e-04 1.2513107535308497e-04 5.4226355134881828e-03  7.5413185315112898e-03 -1.0365507388687555e-05 7.6659362966804317e-05 -1.0365507388687555e-05 6.1753684625767946e-05 6.0029543317194804e-06 7.6659362966804317e-05 6.0029543317194804e-06 -1.0124523357392108e-04  7.4711394021826361e-03 1.1757009452807007e-05 -3.6035871838277973e-05 1.1757009452807007e-05 -2.7854564558571312e-06 -5.9601768492725679e-06 -3.6035871838277973e-05 -5.9601768492725679e-06 3.3323858283432023e-05  3.1226858774955515e-03 8.0267089847222458e-04 1.8394816589616681e-04 8.0267089847222458e-04 1.8123054516295083e-03 -4.0743321358407976e-05 1.8394816589616681e-04 -4.0743321358407976e-05 2.5868949339770109e-03  2.0483974407454700e-03 2.0661667176751185e-03 4.9284826369365984e-04 2.0661667176751185e-03 1.6681251718546084e-04 -6.3422351587888608e-05 4.9284826369365984e-04 -6.3422351587888608e-05 5.2848510473807349e-03  1.0151250088967834e-02 -2.9223720932693511e-04 -1.3931065997353751e-04 -2.9223720932693511e-04 -1.1043303072936542e-03 4.6666193493317943e-05 -1.3931065997353751e-04 4.6666193493317943e-05 -1.5595213967615805e-03  7.6801707755690023e-03 1.1975401426321117e-05 2.7813777825394408e-05 1.1975401426321117e-05 -1.4528908035866129e-04 -1.8375843080333196e-05 2.7813777825394408e-05 -1.8375843080333196e-05 -3.4921219280931554e-05  7.0359222138798878e-03 5.7464295277626634e-05 -7.7923927195018984e-05 5.7464295277626634e-05 3.2591272994097787e-04 3.4688374848367675e-05 -7.7923927195018984e-05 3.4688374848367675e-05 1.4380549842729236e-04  7.6073180043388098e-03 -1.7338605100471508e-05 4.6252658279095493e-06 -1.7338605100471508e-05 -6.2287185077239879e-05 -6.5120018239674065e-06 4.6252658279095493e-06 -6.5120018239674065e-06 -4.4230871979756401e-05  7.6287386504838668e-03 -7.6583358813257571e-06 -6.7828356641011691e-06 -7.6583358813257571e-06 -4.1985525113518760e-07 1.7273632714409296e-05 -6.7828356641011657e-06 1.7273632714409296e-05 -1.2689272173364209e-04  7.5580668399018247e-03 -4.5831663893425515e-06 1.2903432478827287e-04 -4.5831663893425532e-06 6.2493069169361644e-05 2.2101586726903980e-05 1.2903432478827284e-04 2.2101586726903980e-05 -1.1853063793325950e-04  2.0296454219838863e-03 -1.8759780431864856e-03 7.7421509514857638e-04 -1.8759780431864856e-03 7.4403348505280712e-04 5.7834960833850352e-04 7.7421509514857638e-04 5.7834960833850352e-04 4.7833858353740445e-03  5.9008344673980601e-03 -2.2520491621165935e-03 1.7186476077161403e-04 -2.2520491621165935e-03 -5.5814141663700274e-04 1.1693235930832046e-03 1.7186476077161403e-04 1.1693235930832046e-03 2.1654156548116016e-03  -2.5608245734071736e-04 -1.8609576712539753e-03 1.9267584122857032e-03 -1.8609576712539753e-03 2.6231688665589005e-03 1.4596130963504654e-03 1.9267584122857032e-03 1.4596130963504654e-03 5.1324676694373709e-03  -6.3849804059437415e-04 -5.5923839280487097e-04 1.8902155728766892e-03 -5.5923839280487097e-04 4.2908213577904399e-03 1.9865722696940199e-04 1.8902155728766892e-03 1.9865722696940199e-04 3.8825375044140814e-03  9.6954393134467184e-03 -1.2530369850776019e-03 1.7531919503173023e-05 -1.2530369850776019e-03 -2.8010111186915019e-03 4.7582283552996443e-04 1.7531919503173023e-05 4.7582283552996443e-04 6.1115786427656631e-04  5.9031782485956851e-03 -1.5687187412445652e-04 2.1133737060190867e-04 -1.5687187412445652e-04 4.6531731254635862e-04 2.6684945867427228e-04 2.1133737060190867e-04 2.6684945867427228e-04 1.1226708064901744e-03  8.4410650658799831e-03 2.2122288388276088e-04 -3.7765977023157828e-05 2.2122288388276090e-04 -1.4140757554489520e-03 3.0258714611865325e-04 -3.7765977023157828e-05 3.0258714611865325e-04 4.7964404671343297e-04  7.1769906494252812e-03 7.4392272626484400e-04 1.1408515692893128e-04 7.4392272626484400e-04 -3.9061271964116012e-04 2.3902735490121131e-04 1.1408515692893128e-04 2.3902735490121131e-04 7.0995577711845440e-04  8.1390125197301367e-03 5.7113316094597457e-04 -2.4559516794394926e-05 5.7113316094597447e-04 -1.0180522791711504e-03 8.9934511640828171e-05 -2.4559516794394926e-05 8.9934511640828144e-05 3.8077883318214591e-04  6.0059357003183064e-03 2.5681666143243364e-03 2.8116750754932031e-04 2.5681666143243364e-03 2.6660192310201593e-04 4.1040153420412550e-04 2.8116750754932031e-04 4.1040153420412550e-04 1.2351267689035765e-03  6.5755433760510823e-03 1.5126532672767694e-03 -6.2142881967048048e-05 1.5126532672767694e-03 4.1649439857104336e-04 8.4191908237280083e-05 -6.2142881967048048e-05 8.4191908237280083e-05 5.2099236915789952e-04  2.5380078596162726e-04 3.8369175328545097e-03 3.9938914324853494e-04 3.8369175328545097e-03 4.9863079219634896e-03 9.3003560829261838e-04 3.9938914324853494e-04 9.3003560829261838e-04 2.2849566120339486e-03  -2.2589699703114740e-03 7.4812911633410662e-05 8.2339501388395278e-04 7.4812911633410662e-05 5.2341829748663625e-03 1.8939415841420776e-05 8.2339501388395278e-04 1.8939415841420776e-05 4.5866331769743342e-03  7.9185485678539376e-04 -1.6030869738837135e-04 1.2692412987473014e-03 -1.6030869738837135e-04 3.8264001165483150e-03 2.1112039115671682e-04 1.2692412987473011e-03 2.1112039115671682e-04 2.9052620535742809e-03  7.4651659836911313e-03 -4.6967890153968065e-04 1.7277665739073441e-05 -4.6967890153968065e-04 2.4280091300238929e-04 -3.9777134980301644e-05 1.7277665739073441e-05 -3.9777134980301630e-05 -2.0854586716904269e-04  7.3976904590636909e-03 6.0231958048906063e-05 1.0098266229831609e-05 6.0231958048906063e-05 1.1104942222563844e-04 7.8435373980773518e-06 1.0098266229831609e-05 7.8435373980773484e-06 -6.3761639124597801e-06  -1.5914746370836769e-03 2.6835072577703991e-04 7.1787847410991336e-04 2.6835072577703991e-04 4.5856457767658176e-03 -2.4057767405320822e-05 7.1787847410991325e-04 -2.4057767405320832e-05 4.5595422656619583e-03  -6.0812652195345773e-04 5.3148642166299235e-04 1.3750614598730146e-03 5.3148642166299235e-04 4.6519548917253436e-03 1.2760396075836458e-04 1.3750614598730148e-03 1.2760396075836461e-04 3.4899977812172952e-03  7.5269025097942348e-03 7.5316628736638730e-05 -9.7504246809484901e-06 7.5316628736638730e-05 -9.2249930659798674e-05 5.1364263619969898e-06 -9.7504246809484918e-06 5.1364263619969890e-06 6.7228391806750483e-05  7.5117734355619340e-03 -3.9330135264328063e-05 1.0207789889109821e-05 -3.9330135264328063e-05 1.5418266396749021e-05 -5.5445033039930325e-06 1.0207789889109821e-05 -5.5445033039930325e-06 -2.5740567571057939e-05  2.4144060308681652e-03 3.0449072086582665e-04 3.0495639018909924e-04 3.0449072086582665e-04 2.5596155937202465e-03 -2.7847949374502342e-05 3.0495639018909918e-04 -2.7847949374502342e-05 2.5581720244757604e-03  -1.4649883239864271e-03 1.4904911784793381e-03 1.4859691857856613e-03 1.4904911784793381e-03 4.4937150536473328e-03 2.7470277526059881e-04 1.4859691857856613e-03 2.7470277526059881e-04 4.5084324621945801e-03  7.4923560479938879e-03 -4.5197762682617927e-06 -3.6902289167161652e-06 -4.5197762682617927e-06 4.0163059918278758e-06 2.6956623539977841e-06 -3.6902289167161673e-06 2.6956623539977836e-06 5.2146037835079791e-06  7.4708510328573060e-03 9.7312647768979392e-06 8.4659134632311518e-06 9.7312647768979392e-06 1.8315505999054343e-05 2.0681989456644171e-06 8.4659134632311501e-06 2.0681989456644171e-06 1.2752796747676333e-05  2.9528421327145254e-03 8.1860318410926429e-04 2.6323690586031192e-04 8.1860318410926429e-04 1.8808234424233310e-03 -1.6306879310925441e-06 2.6323690586031192e-04 -1.6306879310925441e-06 2.6887792610603553e-03  2.2826470063743590e-03 2.1127760588784171e-03 1.4947573986226503e-03 2.1127760588784171e-03 5.2297087215557681e-04 3.5120513018518484e-04 1.4947573986226503e-03 3.5120513018518484e-04 4.6892472915173889e-03  9.8786528139111120e-03 -2.5359071196658653e-04 -9.0145363340375851e-05 -2.5359071196658653e-04 -1.1293916000171625e-03 1.0414100239831339e-05 -9.0145363340375837e-05 1.0414100239831339e-05 -1.2605476739195826e-03  7.5218865474596577e-03 3.2093320271881809e-05 2.5853461728869323e-05 3.2093320271881809e-05 -9.3376542955461832e-06 6.9189007907634160e-06 2.5853461728869329e-05 6.9189007907634160e-06 -1.1608377251302854e-05  7.0190066221135390e-03 4.1669404749744751e-05 1.6882731061165941e-05 4.1669404749744751e-05 2.1667629182058314e-04 -5.3065068638443215e-06 1.6882731061165941e-05 -5.3065068638443215e-06 2.6864432878216855e-04  7.6988535245319850e-03 -2.1616565791304153e-05 -2.2005838823734828e-05 -2.1616565791304153e-05 -8.5830715079864025e-05 3.8326196719377530e-06 -2.2005838823734828e-05 3.8326196719377521e-06 -1.1233329612274171e-04  7.5279427517853962e-03 -4.1171366319449706e-06 1.4444439238999128e-05 -4.1171366319449706e-06 -2.0653669124831688e-05 -2.3821470951825062e-06 1.4444439238999128e-05 -2.3821470951825058e-06 -5.9557290588043058e-06  7.4884664902687362e-03 -1.9988321473972327e-06 -1.5169900450282917e-05 -1.9988321473972327e-06 -1.5650388510443747e-05 -3.9795813709370666e-06 -1.5169900450282917e-05 -3.9795813709370666e-06 2.8718263064263602e-05  2.7506926003377508e-03 -1.0980409962931521e-03 1.1014320274732006e-03 -1.0980409962931521e-03 1.3461996083071509e-03 9.0353242242359163e-04 1.1014320274732006e-03 9.0353242242359163e-04 3.4377154753762072e-03  6.0448634702331824e-03 -7.8752464270778961e-04 -2.6407195160266657e-04 -7.8752464270778961e-04 1.7849319601469266e-03 1.6875311543471426e-03 -2.6407195160266657e-04 1.6875311543471426e-03 -3.3670386959943645e-04  4.1289308387235006e-03 -6.6741567070665507e-05 1.7784173179638094e-03 -6.6741567070665507e-05 4.3667789940360939e-03 1.2586874636779648e-03 1.7784173179638094e-03 1.2586874636779648e-03 -1.0448764168106907e-03  3.4603783595493873e-03 1.5783725173515648e-04 2.4413590620659498e-03 1.5783725173515648e-04 4.3599231622650754e-03 -7.5218767213955557e-05 2.4413590620659498e-03 -7.5218767213955557e-05 -3.3968023043204917e-04  1.0398804130637214e-02 -9.7081688028286125e-04 -4.4715435857035338e-04 -9.7081688028286125e-04 -2.8693284540365137e-03 8.2641757938828775e-04 -4.4715435857035338e-04 8.2641757938828775e-04 -2.3186772443290291e-05  6.5531718668821468e-03 1.3721918869488226e-04 6.7147460831910459e-05 1.3721918869488226e-04 1.2340910428738821e-03 5.9660635852875257e-05 6.7147460831910459e-05 5.9660635852875257e-05 -2.9915594497516659e-04  8.3101020546985215e-03 3.7610693501113408e-04 -1.0446211212612444e-04 3.7610693501113408e-04 -1.0094011990092633e-03 3.7054327486907469e-04 -1.0446211212612444e-04 3.7054327486907469e-04 2.0681550979124731e-04  7.9447157910359327e-03 4.5026456183847941e-04 -1.7044862159033050e-04 4.5026456183847941e-04 -6.3284952379380382e-05 2.0459288384314854e-04 -1.7044862159033050e-04 2.0459288384314854e-04 -3.8049464486937691e-04  7.9925512961629697e-03 6.6078856708795986e-04 6.1744891459184924e-05 6.6078856708795986e-04 -7.5191511786053993e-04 2.2889288924314376e-04 6.1744891459184924e-05 2.2889288924314376e-04 2.6082106645951422e-04  6.6208872458406298e-03 2.0664917582478215e-03 3.0016071543072183e-04 2.0664917582478215e-03 6.7159254082736818e-04 3.8271780290239830e-04 3.0016071543072183e-04 3.8271780290239830e-04 2.0842785881704104e-04  6.7767530180791805e-03 1.4254636706327755e-03 1.5205435822594797e-04 1.4254636706327755e-03 2.7622105326078743e-04 3.2902679278088906e-04 1.5205435822594797e-04 3.2902679278088906e-04 4.5766204010479005e-04  2.1632014038527442e-03 3.2308071735919455e-03 1.0727083294994760e-03 3.2308071735919455e-03 3.6673598745502268e-03 1.4247527939050860e-03 1.0727083294994760e-03 1.4247527939050860e-03 1.6775062256996207e-03  -1.2879601203501121e-03 2.7889116279135719e-04 1.6190055851089298e-03 2.7889116279135719e-04 5.6109264687857364e-03 -2.8595804828118748e-04 1.6190055851089298e-03 -2.8595804828118748e-04 3.2287301004465482e-03  3.3325232758138475e-03 -2.6032335640412206e-05 1.6654301909317614e-03 -2.6032335640412206e-05 4.5728840612349071e-03 1.2383156526992110e-04 1.6654301909317614e-03 1.2383156526992110e-04 -4.1619984980284270e-04  7.4683589643841641e-03 -5.9689365429696723e-04 -1.5412834933268191e-05 -5.9689365429696723e-04 2.8746588177417417e-04 -1.0752545957008323e-04 -1.5412834933268191e-05 -1.0752545957008320e-04 -2.5670836899642285e-04  7.3140058212378834e-03 -4.9506632812926548e-05 1.9337028472376792e-06 -4.9506632812926507e-05 2.3223537635336740e-04 -1.7941345996326553e-05 1.9337028472376792e-06 -1.7941345996326547e-05 -4.4003331672785630e-05  3.3648116519481157e-05 3.0464919968553085e-04 1.3259012986623334e-03 3.0464919968553085e-04 4.3831744257594989e-03 -6.5201863924234222e-05 1.3259012986623334e-03 -6.5201863924234222e-05 3.1201642620204092e-03  2.2776926779112558e-03 4.7779270883552445e-04 1.9862548444294723e-03 4.7779270883552445e-04 5.1264066279561480e-03 -6.9031610455621854e-05 1.9862548444294723e-03 -6.9031610455621854e-05 9.5557444903270048e-05  7.5595115546112333e-03 1.2115863197141428e-04 -3.6887232078853129e-06 1.2115863197141428e-04 -1.2102382913616651e-04 1.9179198045656711e-05 -3.6887232078853129e-06 1.9179198045656711e-05 6.3431102790409183e-05  7.5326142556970703e-03 -3.9334001675131015e-05 -4.7743281222163563e-06 -3.9334001675131022e-05 -2.3361588351215507e-05 -4.5437741294820389e-06 -4.7743281222163563e-06 -4.5437741294820372e-06 -7.9606862956855493e-06  1.6362962734490533e-03 3.2836610564299806e-04 1.0242297651491495e-03 3.2836610564299806e-04 3.4422970710305660e-03 -3.4941876109145873e-06 1.0242297651491498e-03 -3.4941876109145852e-06 2.4503774778204253e-03  2.3872995025266529e-03 1.4804802165029696e-03 2.0948923981028741e-03 1.4804802165029696e-03 4.6229921589884451e-03 3.5019954670670479e-04 2.0948923981028741e-03 3.5019954670670479e-04 4.8412259864715011e-04  7.5028920533400465e-03 -9.1994113320647120e-06 -3.2119972529273381e-06 -9.1994113320647120e-06 1.5120941005511420e-05 -1.5202277535606768e-06 -3.2119972529273373e-06 -1.5202277535606768e-06 -1.6483185872125482e-05  7.4424688174023340e-03 1.6628062659033040e-05 2.9311841330113938e-06 1.6628062659033040e-05 1.9133292212311370e-05 7.4083551815843852e-07 2.9311841330113934e-06 7.4083551815843863e-07 4.0335915949386066e-05  2.7012032712527491e-03 8.5249398739972412e-04 8.3348373500707234e-04 8.5249398739972412e-04 2.3966408110835066e-03 1.6419267433387058e-04 8.3348373500707234e-04 1.6419267433387058e-04 2.4250016432448931e-03  3.5382241412152426e-03 2.3166764207779985e-03 2.3315654448872345e-03 2.3166764207779985e-03 1.9820794025695344e-03 1.0799576011977221e-03 2.3315654448872345e-03 1.0799576011977221e-03 1.9601945461460175e-03  1.0783068446075642e-02 -3.2919189662809198e-04 -3.5931513688202218e-04 -3.2919189662809198e-04 -1.6609634793299992e-03 -1.4946348695331619e-05 -3.5931513688202218e-04 -1.4946348695331619e-05 -1.6375977828809005e-03  8.4623418066571993e-03 -1.9417144138320190e-05 -9.3828051940900186e-05 -1.9417144138320190e-05 -5.4199452986396061e-04 1.1547289328356563e-05 -9.3828051940900213e-05 1.1547289328356563e-05 -4.2421757841521748e-04  6.6788590129193155e-03 6.5924876888868905e-05 6.2954717936523972e-05 6.5924876888868905e-05 4.1485423235466907e-04 -2.7330470395130415e-06 6.2954717936523972e-05 -2.7330470395130411e-06 4.1247244049909693e-04  7.5959053278223630e-03 -2.2564418977191208e-05 -9.0425404137313454e-06 -2.2564418977191208e-05 -4.4377083392038479e-05 -3.6397904742027444e-06 -9.0425404137313454e-06 -3.6397904742027444e-06 -5.0307300051750093e-05  7.5917215900679607e-03 -6.9035702698205978e-06 -5.6581848391833065e-06 -6.9035702698205978e-06 -4.5258669222684124e-05 -1.5316026584693544e-07 -5.6581848391833065e-06 -1.5316026584693547e-07 -4.5430307873315529e-05  7.5109842779031433e-03 -3.1805217233729080e-06 -2.5071753837656933e-06 -3.1805217233729080e-06 -1.9423883914756303e-06 -2.6766303727037150e-07 -2.5071753837656920e-06 -2.6766303727037155e-07 -7.4429917059901879e-06  </DataArray> 
</PointData> 
</Piece>
</UnstructuredGrid>
</VTKFile>